<svg width="277.112" height="277.112" xmlns="http://www.w3.org/2000/svg">

 <g>
  <title>background</title>
  <rect fill="none" id="canvas_background" height="402" width="582" y="-1" x="-1"/>
 </g>
 <g>
  <title>Layer 1</title>
  <g fill="white" id="svg_1">
   <path id="svg_2" d="m266.339,124.055l-121.419,-121.419c-3.515,-3.515 -9.213,-3.515 -12.728,0l-41.192,41.192l0,-7.232c0,-4.971 -4.029,-9 -9,-9l-27.072,0c-4.971,0 -9,4.029 -9,9l0,52.305l-35.154,35.154c-3.515,3.515 -3.515,9.213 0,12.728c3.515,3.515 9.213,3.515 12.728,0l115.054,-115.055l115.055,115.055c1.757,1.757 4.061,2.636 6.364,2.636s4.606,-0.879 6.364,-2.636c3.515,-3.515 3.515,-9.213 0,-12.728zm-202.411,-78.46l9.072,0l0,16.232l-9.073,9.073l0,-25.305l0.001,0z"/>
   <path id="svg_3" d="m144.92,47.058c-3.515,-3.515 -9.213,-3.515 -12.728,0l-100.108,100.108c-1.688,1.688 -2.636,3.977 -2.636,6.364l0,114.582c0,4.971 4.029,9 9,9l73.369,0c4.971,0 9,-4.029 9,-9l0,-55.826l35.479,0l0,55.826c0,4.971 4.029,9 9,9l73.368,0c4.971,0 9,-4.029 9,-9l0,-114.582c0,-2.387 -0.948,-4.676 -2.636,-6.364l-100.108,-100.108zm84.744,212.054l-55.368,0l0,-55.826c0,-4.971 -4.029,-9 -9,-9l-53.479,0c-4.971,0 -9,4.029 -9,9l0,55.826l-55.369,0l0,-101.854l91.108,-91.108l91.108,91.108l0,101.854z"/>
  </g>
  <g fill="white" id="svg_4"/>
  <g fill="white" id="svg_5"/>
  <g fill="white" id="svg_6"/>
  <g fill="white" id="svg_7"/>
  <g fill="white" id="svg_8"/>
  <g fill="white" id="svg_9"/>
  <g fill="white" id="svg_10"/>
  <g fill="white" id="svg_11"/>
  <g fill="white" id="svg_12"/>
  <g fill="white" id="svg_13"/>
  <g fill="white" id="svg_14"/>
  <g fill="white" id="svg_15"/>
  <g fill="white" id="svg_16"/>
  <g fill="white" id="svg_17"/>
  <g fill="white" id="svg_18"/>
 </g>
</svg>